<?xml version="1.0" standalone="yes"?>
<svg xmlns="http://www.w3.org/2000/svg" width="600" height="248">
<path style="fill:#f7f7f7; stroke:none;" d="M0 0L0 248L600 248L600 0L0 0z"/>
<path style="fill:#c9b31e; stroke:none;" d="M83 86L82 83C100.329 73.6399 117.686 69.3564 138 74L138 73L136 72C147.627 68.2642 153.776 71.1044 159 83C161.334 76.9239 150.903 68.8972 146 66.6389C130.046 59.2897 109.876 62.9514 95 71.25C92.1835 72.8212 75.6479 84.3833 83 86z"/>
<path style="fill:#ff560b; stroke:none;" d="M136.667 65.3333L137.333 65.6667L136.667 65.3333M140 66L144 68L144 67L140 66M138 73L138 74C124.072 69.5847 107.351 70.9442 94 76.9521C89.3302 79.0536 84.4074 80.2135 82 85C98.5872 83.6905 111.415 83.3743 127 91.1667C135.773 95.553 149.992 109.469 160 109C164.211 108.803 163 101.77 163 99C163 88.8542 159.054 77.4004 151 70.8333C145.857 66.64 136.326 72.2721 138 73z"/>
<path style="fill:#c9b31e; stroke:none;" d="M145 70L147 72L147 70L145 70M148 72L149 73L148 72M254 76L253 100L253 144L258 144L258 93C258 87.4314 260.123 78.4614 254 76z"/>
<path style="fill:#59980d; stroke:none;" d="M254 77L254 127C254 131.385 251.851 141.897 257 143C255.932 122.272 261.679 96.9941 256 77L254 77z"/>
<path style="fill:#c9b31e; stroke:none;" d="M327 77C322.861 92.3643 326 112.108 326 128C326 130.529 324.468 144.993 329.742 143.249C333.083 142.144 332 135.625 332 133C332.001 123.617 330.089 112.291 335.329 104.001C344.326 89.7711 361.58 91.1852 369.164 106C374.674 116.762 372 132.25 372 144L377 144C377 130.564 379.536 114.508 374 102L373 102C375.289 111.985 376 120.732 376 131C376 135.394 377.037 140.383 373 143C374.182 131.923 375.67 112.702 369.598 103.001C359.809 87.3606 338.824 89.7733 332.272 107C328.686 116.43 329.934 133.013 331 143L327 142C331.099 128.132 328 109.465 328 95C328 89.5316 329.298 82.0455 327 77z"/>
<path style="fill:#59980d; stroke:none;" d="M327 78L328 110L327 142L331 143C330.48 132.91 328.793 118.624 331.916 109C338.036 90.1366 359.218 87.3609 369.598 104C375.816 113.968 373.617 131.634 373 143C377.853 141.96 376 134.088 376 130C376 117.492 377.349 103.274 367 94.0833C359.613 87.5232 347.143 87.1519 339.028 92.3889C335.558 94.6279 334.197 98.22 330 99L331 78L330 77L327 78z"/>
<path style="fill:#c9b31e; stroke:none;" d="M330 77L331 95L332 95C332 90.0699 333.906 80.4129 330 77M89 83L89 84L103 84L89 83M85 84L85 85L89 85L85 84M104 84L104 85L108 85L104 84M160 84L161 85L160 84M110 85L110 86L113 86L110 85M113.667 86.3333L114.333 86.6667L113.667 86.3333M161 86L161 90L162 90L161 86M72 87L72 88L77 90L72 87M117.667 87.3333L118.333 87.6667L117.667 87.3333M239 134C240.746 146.757 245 143.086 245 132C245 120.024 246.389 106.648 237.812 97.0147C223.488 80.927 195.575 85.7841 189.21 107C179.563 139.153 217.365 154.646 239 134M317 126L314 127C312.5 137.047 298.739 144.572 289 143.393C274.997 141.697 262.301 129.862 263.108 115C263.753 103.122 273.05 91.2932 285 89.26C297.648 87.1082 315.277 94.3573 316 109L317 109C319.106 98.8194 305.408 89.8757 297 88.0154C281.536 84.5939 265.867 94.301 262.518 110C255.425 143.246 307.066 159.447 317 126M437 124C430.084 122.444 428.389 129.718 423.907 133.66C418.816 138.137 411.637 139.972 405 138.62C396.973 136.986 376.896 117.571 389.228 110.028C392.774 107.859 399.01 109 403 109L434 109L434 108C419.623 108 398.475 111.92 385 107C386.086 117.172 384.683 126.054 393.043 133.815C404.895 144.817 427.93 141.118 432 124L436 124C430.523 134.288 423.211 142.183 411 143.446C395.119 145.089 381.03 129.272 382.465 114C385.399 82.7628 426.002 81.492 436 109C438.463 100.018 425.404 90.5253 418 88.49C402.766 84.3024 386.205 92.2089 381.927 108C372.258 143.695 424.884 159.456 437 124M521 134L521 144C529.275 143.34 526 132.271 526 126C526 110.307 524.842 94.0813 507 88.5733C502.405 87.1547 497.731 86.7339 493 87.6188C453.431 95.0203 469.394 155.706 507 143.25C512.554 141.41 516.826 137.983 521 134z"/>
<path style="fill:#3496c5; stroke:none;" d="M95 170C92.0513 164.309 87.4262 159.809 84.5216 154C78.1331 141.225 77 128.014 77 114C77 108.669 79.701 92.2665 74.6821 89.0324C71.2012 86.7894 66.7841 89.7316 64 91.7647C56.4588 97.2717 49.781 104.714 47.6798 114C41.7765 140.089 69.8692 168.904 95 170z"/>
<path style="fill:#c9b31e; stroke:none;" d="M119.667 88.3333L120.333 88.6667L119.667 88.3333M345 88L345 89L363 91C357.912 86.9538 351.17 88 345 88M445 144L450 144C450 124.897 446.439 91.62 475 94L475 88C470.749 88 466.047 87.4555 462 88.9946C440.204 97.2844 445 125.704 445 144M122 89L123 90L122 89z"/>
<path style="fill:#59980d; stroke:none;" d="M240 133L240 127L241 127L240 142L244 142C241.236 130.391 245.763 117.288 241.892 106C239.984 100.436 236.128 95.3316 230.999 92.4028C226.46 89.8106 222.15 89.0083 217 89C211.227 88.9907 206.013 89.431 201.015 92.6597C177.384 107.924 192.217 150.039 221 142.995C228.856 141.073 233.22 136.757 240 133M314 127L317 126L317 125C311.867 124.903 309.561 130.604 305.96 133.829C299.613 139.513 290.145 142.298 282 138.583C259.035 128.106 263.341 92.1741 290 91.2639C297.056 91.0229 303.133 95.0403 307.812 99.9252C310.819 103.065 312.346 108.081 317 108C304.775 76.9851 255.39 87.6762 263.75 122C267.23 136.288 281.235 146.489 296 142.73C303.559 140.806 314.539 136.325 314 127z"/>
<path style="fill:#c9b31e; stroke:none;" d="M343.667 89.3333L344.333 89.6667L343.667 89.3333z"/>
<path style="fill:#59980d; stroke:none;" d="M436 124L432 124C424.691 142.867 401.101 145.041 389.638 128.999C384.543 121.868 386.532 114.85 385 107L436 109C428.421 78.6854 383.8 84.3128 382.209 115C380.524 147.508 425.46 152.788 436 124M446 143C451.061 141.915 449 132.288 449 128C449 115.033 453.69 85.658 474 93L474 89C441.983 89.0035 447.085 120.131 446 143M522 133L522 143L525 143C525 133.361 525.398 123.628 524.961 114C524.696 108.18 522.813 102.668 519.236 98.0401C516.14 94.0346 511.808 91.3969 507 89.9051C503.15 88.7106 498.988 88.9377 495 89.0046C459.402 89.6021 465.846 149.981 501 143.331C509.779 141.67 514.367 136.549 522 133z"/>
<path style="fill:#c9b31e; stroke:none;" d="M124.667 90.3333L125.333 90.6667L124.667 90.3333M339 91L339 92L343 91L339 91M127 91L128 92L127 91M162.333 91.6667L162.667 92.3333L162.333 91.6667M213 91.4684C180.476 96.9852 189.499 145.487 222 139.671C251.682 134.359 242.465 86.4704 213 91.4684M279 94L279 95C287.714 93.0071 293.286 93.0071 302 95C295.537 89.3545 286.292 90.8628 279 94M363.667 91.3333L364.333 91.6667L363.667 91.3333M387 106L433 106C428.714 101.76 425.559 96.4938 420 93.6875C407.336 87.294 393.195 94.1211 387 106M495 91.4684C462.676 96.9118 470.444 144.538 503 139.79C532.787 135.446 524.285 86.5368 495 91.4684M129 92L130 93L129 92z"/>
<path style="fill:#f7f7f7; stroke:none;" d="M215 92.5285C183.459 95.2847 188.49 141.989 220 138.895C248.394 136.107 243.155 90.0683 215 92.5285z"/>
<path style="fill:#c9b31e; stroke:none;" d="M338 92L339 93L338 92M365 92L366 93L365 92z"/>
<path style="fill:#f7f7f7; stroke:none;" d="M390 104L429 104C421.849 88.9922 397.134 89.0186 390 104z"/>
<path style="fill:#c9b31e; stroke:none;" d="M77 93L77 107L78 107L77 93M336.667 93.3333L337.333 93.6667L336.667 93.3333M366 93L367 94L366 93z"/>
<path style="fill:#f7f7f7; stroke:none;" d="M492 93.4792C463.227 99.42 474.24 144.477 503 138.62C532.816 132.549 521.708 87.3454 492 93.4792z"/>
<path style="fill:#c9b31e; stroke:none;" d="M132.667 94.3333L133.333 94.6667L132.667 94.3333M335 94L334 97L335 94M367 94L368 95L367 94M134 95L135 96L134 95M276 97L279 95L276 97M302 95L306 98L302 95M330 95L330 99L334 99L330 95M368 95L369 96L368 95M58 96L59 97L58 96M136 96L137 97L136 96M163 96L163 107L164 107L163 96M369 96L370 97L369 96M57 97L58 98L57 97M138 97L139 98L138 97M275 97L276 98L275 97M370 97L371 98L370 97M56 98L57 99L56 98M139 98L140 99L139 98M235 98L236 99L235 98M274 98L275 99L274 98M306 98L307 99L306 98M371.333 98.6667L371.667 99.3333L371.333 98.6667M55 99L56 100L55 99M141 99L142 100L141 99M273 99L274 100L273 99M307 99L308 100L307 99M143 100L144 101L143 100M272 100L273 101L272 100M308 100L309 101L308 100M372 100L373 101L372 100M144 101L145 102L144 101M271 101L270 104L271 101M309.333 101.667L309.667 102.333L309.333 101.667M331 101L330 105L331 105L333 101L331 101M146 102L147 103L146 102M147 103L148 104L147 103M310 103L311 106L312 106L312 103L310 103M149 104L150 105L149 104M269 104L268 108L269 108L269 104M150.667 105.333L151.333 105.667L150.667 105.333M152 106L153 107L152 106M312.333 106.667L312.667 107.333L312.333 106.667M154.667 107.333L155.333 107.667L154.667 107.333M162 107L163 108L162 107M49 108L50 109L49 108M156.667 108.333L157.333 108.667L156.667 108.333M267 108L267 124L268 124L267 108M313 108L314 109L313 108M159.667 109.333L160.333 109.667L159.667 109.333M48 110L49 111L48 110M47 114L48 115L47 114M160 115L159 120L160 120L162 117L160 115z"/>
<path style="fill:#59980d; stroke:none;" d="M160 116C157.208 134.624 139.105 148.591 124 157.548C117.599 161.344 106.76 164.58 102.623 171.029C99.5617 175.8 105.292 178.677 109 180.32C118.38 184.475 128.06 185.394 138 183L138 182L130 181L130 180L134 179L133 174C149.7 169.051 158.398 148.935 160.7 133C161.448 127.821 163.284 120.341 160 116z"/>
<path style="fill:#c9b31e; stroke:none;" d="M162 118C161.083 139.348 154.455 164.622 133 174L134 179L130 180L130 181L138 182L138 183L136 183L136 184C159.049 179.889 174.218 137.446 162 118M158.333 121.667L158.667 122.333L158.333 121.667M157.333 123.667L157.667 124.333L157.333 123.667M314 123L314 124L318 125L318 124L314 123M268.333 124.667L268.667 125.333L268.333 124.667M312 124L312 126L314 124L312 124M77 126L77 132L78 132L77 126M156 126L157 127L156 126M269.333 126.667L269.667 127.333L269.333 126.667M311 126L310 129L311 126M522 126L523 127L522 126M155 128L156 129L155 128M270 128L272 131L270 128M521 128L520 131L521 128M154 129L155 130L154 129M309.333 129.667L309.667 130.333L309.333 129.667M153 131L154 132L153 131M272 131L273 132L272 131M308 131L309 132L308 131M152 132L153 133L152 132M273 132L274 133L273 132M307 132L308 133L307 132M310 132L311 133L310 132M274 133L275 134L274 133M306 133L307 134L306 133M78.3333 134.667L78.6667 135.333L78.3333 134.667M151 134L152 135L151 134M275 134L276 135L275 134M305 134L306 135L305 134M308 134L309 135L308 134M150 135L151 136L150 135M276.667 135.333L277.333 135.667L276.667 135.333M303.667 135.333L304.333 135.667L303.667 135.333M149 136L150 137L149 136M278 136L279 137L278 136M302 136L303 137L302 136M279 137L279 138C286.538 140.747 294.462 140.747 302 138L302 137L279 137M147 139L148 140L147 139M79.3333 140.667L79.6667 141.333L79.3333 140.667M146 140L147 141L146 140M145 141L146 142L145 141M144 142L145 143L144 142M143 143L144 144L143 143M142 144L143 145L142 144M141 145L142 146L141 145M140 146L141 147L140 146M81 147L82 148L81 147M137 148L138 149L137 148M82 149L83 150L82 149M136 149L137 150L136 149z"/>
<path style="fill:#3496c5; stroke:none;" d="M192 150L192 152C202.651 152.347 200 162.965 200 171L202 171C202 162.965 199.349 152.347 210 152L210 150L192 150M222 171L238 171L238 170L223 168L223 163L237 161L237 160C220.737 160 222.891 152 238 152C222.225 140.049 222 161.423 222 171M269 167L268 166C264.933 167.709 261.463 170.097 257.849 168.476C250.481 165.172 250.948 154.556 259.004 152.557C262 151.814 265.139 153.243 268 154C256.654 136.021 237.904 175.134 262.995 170.772C265.771 170.29 267.218 169.019 269 167M297 150L297 171C300.418 166.488 300.418 154.512 297 150M313 150L313 171L315 171L315 155L330 171L330 150L328 150L328 167L313 150M349.04 150.858C336.658 156.117 345.035 175.914 357.895 170.142C369.817 164.791 361.153 145.714 349.04 150.858M377 150L377 171L392 171L392 169L379 169L379 150L377 150M407.043 151.028C394.685 157.58 404.457 176.638 416.956 169.972C428.289 163.928 418.853 144.767 407.043 151.028M444 160L444 161C453.044 164.405 447.382 171.941 440.965 168.022C434.939 164.343 435.808 156.192 442.019 153.198C445.267 151.631 448.737 153.332 452 154C441.853 137.92 422.727 170.275 444 170.941C446.242 171.011 448.786 170.773 450.566 169.258C457.566 163.3 449.097 160.018 444 160M467 150C465.902 154.829 464.77 168.159 469 171L469 150L467 150M498 171L498 169C491.403 169 484.63 170.253 484 162L497 162L497 160C481.396 160 483.527 152 498 152L498 150C494.231 150 486.708 148.569 483.603 151.028C480.699 153.328 480.699 167.672 483.603 169.972C486.708 172.431 494.231 171 498 171M527 165L527 166C520.365 169.65 516.755 168.641 510 166C512.871 171.693 529.155 174.311 528.454 165.029C527.88 157.434 517.139 162.286 514.35 157.542C511.76 153.137 519.392 152.055 521.975 152.894C523.675 153.447 525.333 154.348 527 155C524.121 145.885 506.582 150.825 511.198 158.606C513.727 162.867 522.739 162.656 527 165z"/>
<path style="fill:#c9b31e; stroke:none;" d="M133 151L134 152L133 151z"/>
<path style="fill:#3496c5; stroke:none;" d="M282 151L284 171C284.689 165.305 286.86 155.241 282 151z"/>
<path style="fill:#c9b31e; stroke:none;" d="M83 152L84 153L83 152M132 152L133 153L132 152z"/>
<path style="fill:#f7f7f7; stroke:none;" d="M350.094 152.743C340.197 156.811 346.599 172.749 356.895 168.142C366.333 163.919 359.549 148.857 350.094 152.743M408.055 153.029C398.38 158.192 406.237 173.385 415.891 167.972C424.715 163.025 417.262 148.115 408.055 153.029z"/>
<path style="fill:#c9b31e; stroke:none;" d="M130 153L131 154L130 153M282 153L282 160L283 160L282 153M223 154L224 155L223 154M527 154L528 155L527 154M127 155L128 156L127 155M85 156L86 157L85 156M125 156L126 157L125 156M124 157L125 158L124 157M223 157L224 158L223 157M250 157L251 158L250 157M122 158L123 159L122 158M361 158L362 159L361 158M403 158L404 159L403 158M434 158L435 159L434 158M120 159L121 160L120 159M515 159L516 160L515 159M118 160L119 161L118 160M286 160L288 162L286 160z"/>
<path style="fill:#3496c5; stroke:none;" d="M287 160L287 161L294 162L294 160L287 160z"/>
<path style="fill:#c9b31e; stroke:none;" d="M294 160L295 161L294 160M88 161L89 162L88 161M116 161L117 162L116 161M115 162L116 163L115 162M282 162L282 168L283 168L282 162M484 162L485 163L484 162M112.667 163.333L113.333 163.667L112.667 163.333M223 163L224 164L223 163M250 163L251 164L250 163M361 163L362 164L361 163M111 164L112 165L111 164M109 165L110 166L109 165M437 165L438 166L437 165M107 166L108 167L107 166M105 167L106 168L105 167M94 168L95 169L94 168M104 168L105 169L104 168M440 168L441 169L440 168M103 169L104 170L103 169M94 170L95 171L94 170M102 170L103 171L102 170M101 171L102 172L101 171M517 171L517 172L521 172L517 171M100 172L100 175L101 175L100 172M101.667 176.333L102.333 176.667L101.667 176.333M103 177L104 178L103 177M104.667 178.333L105.333 178.667L104.667 178.333M106 179L107 180L106 179M108.667 180.333L109.333 180.667L108.667 180.333z"/>
<path style="fill:#59980d; stroke:none;" d="M140.667 180.333L141.333 180.667L140.667 180.333z"/>
<path style="fill:#c9b31e; stroke:none;" d="M110.667 181.333L111.333 181.667L110.667 181.333M113 182L113 183L116 183L113 182M116.667 183.333L117.333 183.667L116.667 183.333M119 184L119 185L136 185L119 184z"/>
</svg>
