<?xml version="1.0" standalone="yes"?>
<svg xmlns="http://www.w3.org/2000/svg" width="200" height="200">
<path style="fill:#0b1729; stroke:none;" d="M0 0L0 200L200 200L200 0L0 0z"/>
<path style="fill:#5a96c0; stroke:none;" d="M4 68L4 69L9 69L4 68M14 68L14 69L17 69L14 68M29 68L29 69L32 69L29 68M38 76L38 77L42 77L38 76M33 77L34 78L33 77z"/>
<path style="fill:#8aa60e; stroke:none;" d="M34 77L34 78L37 78L34 77z"/>
<path style="fill:#f2540b; stroke:none;" d="M22 86C28.4202 85.8539 34.0956 85.8679 40 88.8102C43.0435 90.3269 48.0525 95.1409 51.6813 94.1721C56.8006 92.8054 51.6976 83.1672 49.7724 81.1335C42.0438 72.9694 27.7706 78.2329 22 86z"/>
<path style="fill:#5a96c0; stroke:none;" d="M44 77L45 78L44 77M30 78L31 79L30 78z"/>
<path style="fill:#8aa60e; stroke:none;" d="M31 78L32 79L31 78z"/>
<path style="fill:#5a96c0; stroke:none;" d="M28 79L29 80L28 79z"/>
<path style="fill:#8aa60e; stroke:none;" d="M29 79L30 80L29 79z"/>
<path style="fill:#5a96c0; stroke:none;" d="M48 79L49 80L48 79M26 80L27 81L26 80z"/>
<path style="fill:#8aa60e; stroke:none;" d="M27 80L28 81L27 80z"/>
<path style="fill:#5a96c0; stroke:none;" d="M49 80L50 81L49 80M25 81L26 82L25 81M50 81L51 82L50 81z"/>
<path style="fill:#8aa60e; stroke:none;" d="M24 82L25 83L24 82z"/>
<path style="fill:#5a96c0; stroke:none;" d="M51 82L52 83L51 82M87 82L86 108L83 105L75 108L75 109L82 106L86 112L76 112L86 117L88 112C87.0607 116.933 89.4671 117.955 94 117L94 113L93 111L89 110C93.6112 101.404 91 91.3229 91 82L90 82L90 108L88 108L87 82z"/>
<path style="fill:#dce3ed; stroke:none;" d="M88 82L88 108L90 108L90 82L88 82z"/>
<path style="fill:#5a96c0; stroke:none;" d="M116 82L117 83L116 82z"/>
<path style="fill:#dce3ed; stroke:none;" d="M117 82C114.848 89.2811 114.848 100.719 117 108L118 108C118 104.128 117.464 99.7411 118.653 96.0039C120.663 89.6822 127.86 86.9461 131.991 93.1088C134.828 97.341 134 103.166 134 108L136 108C136 96.3057 133.149 80.7953 118 90L117 82z"/>
<path style="fill:#5a96c0; stroke:none;" d="M118 82L118 90L119 90L118 82z"/>
<path style="fill:#8aa60e; stroke:none;" d="M23 83L24 84L23 83M22 84L23 85L22 84z"/>
<path style="fill:#5a96c0; stroke:none;" d="M52 84L53 85L52 84M21 85L22 86L21 85M68 87L68 88L73 87L68 87z"/>
<path style="fill:#dce3ed; stroke:none;" d="M85 108C85 103.835 85.6444 99.0566 84.5833 95C79.2483 74.6039 50.9064 96.2258 68.0833 106.889C74.1603 110.661 79.2148 105.348 85 108z"/>
<path style="fill:#5a96c0; stroke:none;" d="M75.6667 86.3333L76.3333 86.6667L75.6667 86.3333M99.6667 86.3333L100.333 86.6667L99.6667 86.3333z"/>
<path style="fill:#dce3ed; stroke:none;" d="M113 101C109.173 102.214 106.302 106.091 102 105.793C92.1183 105.11 91.6772 91.3692 101.001 89.0826C105.849 87.8934 109.204 92.9888 113 95C109.034 84.985 93.3817 83.0463 92.1127 96C90.7935 109.465 107.371 111.588 113 101z"/>
<path style="fill:#5a96c0; stroke:none;" d="M104.667 86.3333L105.333 86.6667L104.667 86.3333M123 86L123 87L129 87L123 86M145.667 86.3333L146.333 86.6667L145.667 86.3333z"/>
<path style="fill:#dce3ed; stroke:none;" d="M158 100L157 100C154.499 103.103 151.466 106.484 147.001 105.638C143.877 105.046 137.998 100.182 140.792 96.6034C143.577 93.037 154.892 95 159 95C154.014 83.7897 135.182 84.7573 137.384 99C139.156 110.454 155.663 111.31 158 100z"/>
<path style="fill:#5a96c0; stroke:none;" d="M149 86L149 87L152 87L149 86M169 86L169 87C172.087 87.9308 172.903 88.8314 172 92L178 88L178 87L174 89C173.346 85.9461 171.993 86.0642 169 86M179.667 86.3333L180.333 86.6667L179.667 86.3333z"/>
<path style="fill:#dce3ed; stroke:none;" d="M191 105L191 108L193 108C193 104.365 193.257 100.619 192.895 97C192.686 94.9095 192.174 92.8775 190.991 91.1088C177.743 71.3021 159.553 112.452 183.998 108.199C186.616 107.744 188.785 106.364 191 105z"/>
<path style="fill:#5a96c0; stroke:none;" d="M183 86L183 87L186 87L183 86M78.6667 87.3333L79.3333 87.6667L78.6667 87.3333M97 87L98 88L97 87M107 87L108 88L107 87M121 87L122 88L121 87M130 87L131 88L130 87M142.667 87.3333L143.333 87.6667L142.667 87.3333M152.667 87.3333L153.333 87.6667L152.667 87.3333M167 87L168 88L167 87z"/>
<path style="fill:#dce3ed; stroke:none;" d="M162 108L164 108C164 99.7677 163.023 91.0189 173 89L173 87C160.904 87.6627 162 98.6806 162 108z"/>
<path style="fill:#5a96c0; stroke:none;" d="M187 87L188 88L187 87M19 122L28 120L18.4167 107L14 98L19 88C16.6149 88.6695 14.9185 89.4065 13.0502 91.1481C0.374584 102.964 17.2657 110.76 19 122M53 88L54 89L53 88M72 88L72 89L76 89L72 88M80 88L81 89L80 88M95 88L96 89L95 88M101 88L101 89L104 89L101 88M109 88L110 89L109 88M120 88L121 89L120 88M131 88L132 89L131 88M141 88L142 89L141 88M147 88L147 89L150 89L147 88M165 88L166 89L165 88M181 88L181 89L184 89L181 88M70 89L71 90L70 89z"/>
<path style="fill:#0b1729; stroke:none;" d="M76 106C76.9435 102.359 78.0146 97.0167 82 96C75.3691 76.9662 54.327 104.813 76 106z"/>
<path style="fill:#5a96c0; stroke:none;" d="M77 89L78 90L77 89M81 89L82 90L81 89M94 89L95 90L94 89M98.6667 89.3333L99.3333 89.6667L98.6667 89.3333M105.667 89.3333L106.333 89.6667L105.667 89.3333M110 89L111 90L110 89M123 89L124 90L123 89M128 89L129 90L128 89M140 89L141 90L140 89M144 89L142 90L142 91L144 89z"/>
<path style="fill:#0b1729; stroke:none;" d="M142 91L142 92L154 92C150.173 88.415 146.582 89.0614 142 91z"/>
<path style="fill:#5a96c0; stroke:none;" d="M151 89L152 90L151 89M156 89L157 90L156 89M164 89L165 90L164 89M169 89L170 90L169 89M178 89L175 91L175 92L179 90L178 89z"/>
<path style="fill:#0b1729; stroke:none;" d="M174 96L178 95L184 105C199.679 100.348 180.198 78.6148 174 96z"/>
<path style="fill:#5a96c0; stroke:none;" d="M185 89L186 90L185 89M190 89L191 90L190 89M65 90L66 91L65 90M68 90L69 91L68 90M79 90L80 91L79 90M82 90L83 91L82 90M93 90L94 91L93 90M97 90L98 91L97 90M107 90L108 91L107 90M111 90L112 91L111 90M121 90L122 91L121 90M130 90L131 91L130 90M133 90L134 91L133 90M139 90L140 91L139 90M153 90L154 91L153 90M163.333 90.6667L163.667 91.3333L163.333 90.6667M167 90L168 91L167 90M187 90L188 91L187 90M64 91L65 92L64 91M67 91L68 92L67 91M80 91L81 92L80 91M83 91L84 92L83 91M120 91L121 92L120 91M131 91L132 92L131 91M134 91L135 92L134 91M138 91L139 92L138 91M141 92L141 93L156 93L141 92M157 91L158 92L157 91M166 91L167 92L166 91M188 91L189 92L188 91M191 91L192 92L191 91M66.3333 92.6667L66.6667 93.3333L66.3333 92.6667M92 92L93 93L92 92M95 92L96 93L95 92M109 92L110 93L109 92M112.333 92.6667L112.667 93.3333L112.333 92.6667M158.333 92.6667L158.667 93.3333L158.333 92.6667M162.333 92.6667L162.667 93.3333L162.333 92.6667M165 92L166 93L165 92M189.333 92.6667L189.667 93.3333L189.333 92.6667M192.333 92.6667L192.667 93.3333L192.333 92.6667M63 93L64 94L63 93M81 93L82 94L81 93M84.3333 93.6667L84.6667 94.3333L84.3333 93.6667M94.3333 93.6667L94.6667 94.3333L94.3333 93.6667M119 93L120 94L119 93M132 93L133 94L132 93M135.333 93.6667L135.667 94.3333L135.333 93.6667M137.333 93.6667L137.667 94.3333L137.333 93.6667M171.333 93.6667L171.667 94.3333L171.333 93.6667M174 93L175 94L174 93M53 94L47 96C46.9992 102.826 45.8112 106.328 42 112L53 98L54 103L55 103L55 100L63 100L63 96L53 94M65 94L65 101L66 101L65 94M110 94L111 95L110 94M164 94L164 108L162 108L162 95L161 95C161 99.2113 158.856 110.179 164 111L164 112L159 111L159 112L162 113C161.478 116.092 161.919 117.14 165 118L165 119L160 119L160 120L167 122C167 114.318 169.93 99.6414 164 94M190 94L190 97L191 97L190 94M80 95L76 106C80.8909 103.663 82.7081 100.332 83 95L80 95M100 95L98 105L98 106L107 106L107 105L105 96L100 95M118 95L118 108L119 108L118 95M133 95L133 108L134 108L133 95M139 99L140 99L140 96L141 96L140 102L141 102L143 100L143 105C147.415 106.005 148.663 104.319 149 100L157 101L158 95C152.367 95 141.14 92.5528 139 99M173 95L175 99C175.282 105.544 180.487 105.981 186 106L186 105L178 95L173 95M193 95L191 108L191 109L194 112L192 114L189 115L189 116L192 115L189 120L194 119C194.654 122.054 196.007 121.936 199 122L199 96L193 95M21 96L23 112C27.9083 111.201 30.0416 113.246 33 117L38 115L35 110C40.2139 107.37 41.9874 100.339 35.9414 97.0278C31.9244 94.8278 25.4457 96 21 96M93 96L93 99L94 99L93 96z"/>
<path style="fill:#0b1729; stroke:none;" d="M140 96L140 100L141 100L140 96z"/>
<path style="fill:#8aa60e; stroke:none;" d="M52 98C48.9931 108.124 39.2668 114.121 30 118C31.9849 124.598 40.2896 126.238 45.9846 122.91C53.4447 118.552 57.7293 105.001 52 98z"/>
<path style="fill:#0b1729; stroke:none;" d="M81.3333 98.6667L81.6667 99.3333L81.3333 98.6667z"/>
<path style="fill:#5a96c0; stroke:none;" d="M190 98L190 101L191 101L190 98z"/>
<path style="fill:#0b1729; stroke:none;" d="M174.333 99.6667L174.667 100.333L174.333 99.6667M24 100L24 107C35.8824 106.991 35.8825 100.009 24 100M55 100L55 106L63 106L63 110L54 110L52 117L67 117L64 110L71 110L69 119L70 119C73.9601 108.818 76.8384 111.391 86 112L82 106C74.0054 110.398 67.0429 108.645 63 100L55 100z"/>
<path style="fill:#5a96c0; stroke:none;" d="M94.3333 100.667L94.6667 101.333L94.3333 100.667M110 100L110 101L113 101L110 100M137.333 100.667L137.667 101.333L137.333 100.667z"/>
<path style="fill:#0b1729; stroke:none;" d="M141 100L144 104L143 100L141 100M149 100L148 106L156 100L149 100z"/>
<path style="fill:#5a96c0; stroke:none;" d="M158.333 100.667L158.667 101.333L158.333 100.667M171.333 100.667L171.667 101.333L171.333 100.667M63.3333 101.667L63.6667 102.333L63.3333 101.667M66.3333 101.667L66.6667 102.333L66.3333 101.667M189.333 101.667L189.667 102.333L189.333 101.667M92 102L93 103L92 102M95 102L96 103L95 102M109 102L110 103L109 102M112 102L113 103L112 102M155 102L156 103L155 102M64 103L65 104L64 103M67 103L68 104L67 103M96 103L97 104L96 103M108 103L109 104L108 103M138 103L139 104L138 103M154 103L155 104L154 103M157 103L158 104L157 103M172 103L173 104L172 103M188 103L189 104L188 103M65 104L66 105L65 104M68 104L69 105L68 104M97 104L98 105L97 104M107 104L108 105L107 104M139 104L140 105L139 104M153 104L154 105L153 104M173 104L173 111C168.857 111.521 168.857 118.479 173 119C174.071 123.996 181.201 121.143 183 118L177 119L177 111L183 111L183 110L178 110L178 109L181 109L181 108L173 104z"/>
<path style="fill:#0b1729; stroke:none;" d="M178 104L179 105L178 104z"/>
<path style="fill:#5a96c0; stroke:none;" d="M187 104L188 105L187 104M70 105L71 106L70 105M94 105L95 106L94 105M110 105L111 106L110 105M140 105L141 106L140 105M151 105L152 106L151 105M190 105L183 108L187 115L188 115L188 110L191 111L191 110L189 109L190 105M54 110L63 110L63 106C58.8496 106.015 55.4559 105.613 54 110M67 106L68 107L67 106M73 106L74 107L73 106M95 106L96 107L95 106M109 106L110 107L109 106M141 106L142 107L141 106M154 106L155 107L154 106M68 107L69 108L68 107M97 107L98 108L97 107M107 107L108 108L107 107M116 107L116 109L118 109L116 107M142.667 107.333L143.333 107.667L142.667 107.333M152.667 107.333L153.333 107.667L152.667 107.333z"/>
<path style="fill:#0b1729; stroke:none;" d="M175 107L176 108L175 107M190 107L189 110L194 112L190 107z"/>
<path style="fill:#5a96c0; stroke:none;" d="M70 108L70 109L73 109L70 108M99 108C97.6035 123.378 104.505 122 118 122L118 117L117 117L110 119L111 110L109 117L105 117L106 108L99 108M134.667 108.333L135.333 108.667L134.667 108.333M144 108L144 122L153 117L150 117L146 119L146 118L149 118L153 113L153 112L146 112L146 111L150 111L144 108M149.667 108.333L150.333 108.667L149.667 108.333z"/>
<path style="fill:#0b1729; stroke:none;" d="M101 109L101 110L104 110L101 109z"/>
<path style="fill:#5a96c0; stroke:none;" d="M121 112L127 111L127 112L120 113L121 119L122 119L127 112L129 117L130 117L133 114L133 109C128.514 109 123.846 108.053 121 112M64 112L71 112C68.9003 109.597 66.0997 109.597 64 112M69 122L81 118L75 119L75 111L81 111C73.0929 107.688 70.1671 115.433 69 122z"/>
<path style="fill:#0b1729; stroke:none;" d="M87 110L88 111L87 110z"/>
<path style="fill:#5a96c0; stroke:none;" d="M114.667 110.333L115.333 110.667L114.667 110.333M134 110L135 118L136 118L134 110z"/>
<path style="fill:#0b1729; stroke:none;" d="M188 110L189 111L188 110z"/>
<path style="fill:#dce3ed; stroke:none;" d="M65 111L65 112L67 119L68 119L70 112L65 111M75 111L75 119L80 119L80 118L76 118L76 116L80 116L80 115L76 112L81 112L75 111M88 111L88 112L92 112L88 111M99 111L99 119L100 119L100 116L103 116L103 119L104 119L104 111L103 111L103 115L100 115L99 111z"/>
<path style="fill:#0b1729; stroke:none;" d="M100 111L100 114L101 114L100 111z"/>
<path style="fill:#dce3ed; stroke:none;" d="M110 111L110 119L111 119L111 114L112 114L116 119L116 111L114 111L114 116L113 116L110 111M121 114L127 112C124.12 110.902 122.65 111.445 121 114M134 111L134 119L139 119L139 118L135 118L134 111M146 111L146 112L151 112L146 111M160 111L160 112L164 112L160 111M171 111L171 119L172 119L171 111M177 111L177 119L182 119L182 118L178 118L178 116L182 116L182 115L178 112L183 112L177 111M188 111L190 115L192 112L188 111z"/>
<path style="fill:#5a96c0; stroke:none;" d="M40 112L41 113L40 112M53.3333 112.667L53.6667 113.333L53.3333 112.667M66 112L67 113L66 112M68 112L68 119L69 119L68 112z"/>
<path style="fill:#dce3ed; stroke:none;" d="M86 112C86.1874 117.707 88.3593 119.606 94 118L94 117C89.6665 117.484 87.5985 116.624 88 112L86 112M92.6667 112.333L93.3333 112.667L92.6667 112.333M127 112C127.414 116.759 125.213 117.486 121 116C124.635 121.602 131.843 116.253 127 112M145 112L145 118L146 118L145 112M151 112L151 118L152 118L151 112M158 112L158 114L160 112L158 112M164 112L166 114L166 112L164 112z"/>
<path style="fill:#5a96c0; stroke:none;" d="M178.333 112.667L178.667 113.333L178.333 112.667M189 112L190 113L189 112z"/>
<path style="fill:#0b1729; stroke:none;" d="M189 114L192 114L191 112L189 114z"/>
<path style="fill:#dce3ed; stroke:none;" d="M192 112L193 113L192 112z"/>
<path style="fill:#0b1729; stroke:none;" d="M77 113L78 114L77 113z"/>
<path style="fill:#5a96c0; stroke:none;" d="M112 113L113 114L112 113z"/>
<path style="fill:#0b1729; stroke:none;" d="M149 113L149 118L150 118L151 113L149 113z"/>
<path style="fill:#5a96c0; stroke:none;" d="M157 113L157 117L158 117L157 113z"/>
<path style="fill:#0b1729; stroke:none;" d="M159 113L162 118L162 113L159 113z"/>
<path style="fill:#5a96c0; stroke:none;" d="M111 114L112 115L111 114z"/>
<path style="fill:#0b1729; stroke:none;" d="M122 114C123.37 118.096 126.572 118.053 128 114L122 114z"/>
<path style="fill:#5a96c0; stroke:none;" d="M151.333 114.667L151.667 115.333L151.333 114.667M179 114L179 115L183 116L179 114z"/>
<path style="fill:#0b1729; stroke:none;" d="M192.667 114.333L193.333 114.667L192.667 114.333z"/>
<path style="fill:#5a96c0; stroke:none;" d="M52 115L53 116L52 115z"/>
<path style="fill:#0b1729; stroke:none;" d="M111 115L111 119L112 119L111 115z"/>
<path style="fill:#5a96c0; stroke:none;" d="M113 115L114 116L113 115z"/>
<path style="fill:#dce3ed; stroke:none;" d="M120 115L121 116L120 115z"/>
<path style="fill:#5a96c0; stroke:none;" d="M153 115L154 116L153 115z"/>
<path style="fill:#dce3ed; stroke:none;" d="M162 115L162 116L165 118C165.951 115.493 164.348 115.294 162 115M190.667 115.333L191.333 115.667L190.667 115.333z"/>
<path style="fill:#5a96c0; stroke:none;" d="M76.3333 116.667L76.6667 117.333L76.3333 116.667z"/>
<path style="fill:#0b1729; stroke:none;" d="M87 116L88 117L87 116M100 116L100 119L101 119L102 116L100 116z"/>
<path style="fill:#5a96c0; stroke:none;" d="M112 116L113 117L112 116z"/>
<path style="fill:#0b1729; stroke:none;" d="M146 116L147 117L146 116z"/>
<path style="fill:#dce3ed; stroke:none;" d="M158 116L165 119L165 118L158 116z"/>
<path style="fill:#0b1729; stroke:none;" d="M164 116L165 117L164 116z"/>
<path style="fill:#5a96c0; stroke:none;" d="M178.333 116.667L178.667 117.333L178.333 116.667z"/>
<path style="fill:#dce3ed; stroke:none;" d="M192 116L191 119L192 116z"/>
<path style="fill:#5a96c0; stroke:none;" d="M31 117L32 118L31 117M48 122L66 122L67 117C59.7403 117 52.5114 115.331 48 122M126 117L127 118L126 117M187 117L187 119L189 117L187 117M86 118L87 119L86 118M88 119L88 120L96 122L94 118L88 119M139 118L134 119L134 120L139 118z"/>
<path style="fill:#dce3ed; stroke:none;" d="M146 118L146 119L151 119L146 118z"/>
<path style="fill:#5a96c0; stroke:none;" d="M158 118L159 119L158 118z"/>
<path style="fill:#dce3ed; stroke:none;" d="M188.667 118.333L189.333 118.667L188.667 118.333z"/>
<path style="fill:#5a96c0; stroke:none;" d="M29.3333 119.667L29.6667 120.333L29.3333 119.667M67 119L68 120L67 119M123 119L123 120L127 120L123 119M30 121L31 122L30 121M31 122L32 123L31 122M34 123L35 124L34 123M45 123L46 124L45 123M37 124L38 125L37 124M42 124L43 125L42 124z"/>
</svg>
