<?xml version="1.0" standalone="yes"?>
<svg xmlns="http://www.w3.org/2000/svg" width="833" height="252">
<path style="fill:#ffffff; stroke:none;" d="M0 0L0 83L40 83L40 91L8 91L8 110L29 110L29 118L8 118L8 141L42 141L42 149L0 149L0 252L833 252L833 59C781.369 83.1347 737.363 124.436 685 147L663.6 110L620.2 38L604 11L596.61 0.603394L582 0L548 0L427 0L0 0z"/>
<path style="fill:#e71d41; stroke:none;" d="M598 0C602.592 15.6127 615.436 31.0597 623.8 45C644.125 78.8748 666.441 112.131 685 147C702.619 141.817 720.258 127.045 736 117.6C768.322 98.2074 801.564 79.8015 833 59L808 51.8735L757 39.1265L653 13.1265L598 0z"/>
<path style="fill:#ffffff; stroke:none;" d="M602 0L602 1L664 16.1265L783 45.8735L833 58L833 0L602 0z"/>
<path style="fill:#010101; stroke:none;" d="M75 104C72.4936 101.948 70.1601 100.227 67 99.3056C35.0917 90.0016 33.5748 157.934 66 149.442C69.5475 148.513 72.2599 146.312 75 144L76 149L83 149L83 81C71.9281 83.1499 75 95.1858 75 104M93.3179 82.0324C88.0284 85.4387 92.9873 94.1498 98.7708 90.8056C104.729 87.3605 98.8935 78.4419 93.3179 82.0324M157 151L165 145C167.784 146.98 170.598 148.871 174 149.61C205.034 156.346 205.699 91.7996 175 99.0471C171.223 99.9388 168.124 101.778 165 104L165 81C155.113 83.8649 157 91.26 157 100L157 151M326 149L334 149C334 138.379 331.909 125.188 335.225 115C337.115 109.192 342.503 104.211 348.996 106.604C361.77 111.312 357 138.448 357 149L365 149C365 136.334 367.706 119.961 362.856 108.001C357.894 95.7655 342.571 96.9811 334 104L334 81C324.113 83.8649 326 91.2599 326 100L326 149M544.318 82.0324C539.028 85.4387 543.987 94.1498 549.771 90.8056C555.729 87.3604 549.893 78.4419 544.318 82.0324M0 83L0 149L42 149L42 141L8 141L8 118L29 118L29 110L8 110L8 91L40 91L40 83L0 83M393 83L393 149L401 149L401 99L402 99C406.531 113.221 421.174 136.068 431.76 146.682C434.325 149.254 437.629 148.988 441 149L441 83L433 83L433 134C425.64 121.976 418.114 110.051 410.797 98C405.909 89.9489 403.225 83.0361 393 83M118 103C117.146 99.0129 113.511 100 110 100L110 149L118 149C118 138.603 115.306 123.763 119.148 114.001C121.551 107.895 128.839 103.556 134.892 107.742C144.495 114.383 140 138.768 140 149L148 149C148 132.218 154.76 94.0363 127 98.9529C123.559 99.5624 120.887 101.122 118 103M259 103C258.146 99.0129 254.511 100 251 100L251 149L259 149C259 133.928 253.122 101.685 277 108L279 100C271.364 97.586 265.663 98.6607 259 103M310 144C308.233 157.671 300.216 159.456 288 161C292.138 172.458 310.602 165.545 315 156.985C322.722 141.957 318 116.484 318 100L310 100L310 104C307.197 101.704 304.582 99.9097 301 99.0478C269.319 91.4252 269.426 158.474 301 149.362C304.474 148.359 307.259 146.252 310 144M452 102L454 109C466.267 106.821 477.949 102.214 478 120C473.635 118.616 469.609 117.837 465 118.039C440.097 119.131 444.306 155.176 469 149.471C472.907 148.568 475.956 146.495 479 144C479.728 148.362 481.824 148.863 486 149C486 129.571 493.484 95.078 464 98.8735C459.778 99.417 455.978 100.517 452 102M503 104L503 100L495 100L495 167C505.684 163.904 503 154.247 503 145C505.784 146.98 508.599 148.871 512 149.61C543.233 156.389 543.674 91.7077 513 99.0478C509.264 99.9418 506.167 101.913 503 104M598 144L598 143L594 138L593 138C581.636 146.02 568.781 142.051 568 127L600 127C600 119.488 600.078 111.354 595.061 105.185C586.723 94.9341 569.767 97.0387 563.225 108.001C548.532 132.619 572.599 162.067 598 144M616 103C615.146 99.0129 611.51 100 608 100L608 149L616 149C616 133.929 610.122 101.685 634 108L636 100C628.364 97.586 622.663 98.6607 616 103M92 100L92 149L100 149L100 100L92 100M204 100C204 112.032 201.059 128.616 205.264 140C210.123 153.158 226.334 151.725 235 144C235.928 148.254 237.828 148.861 242 149L242 100L234 100C234 110.261 236.465 124.235 233.146 133.999C231.489 138.871 226.574 143.728 221 142.523C206.769 139.446 212 110.519 212 100L204 100M543 100L543 149L551 149L551 100L543 100z"/>
<path style="fill:#ffffff; stroke:none;" d="M58.0432 106.742C44.7757 112.115 48.7819 149.351 67 141.991C81.6121 136.088 77.8963 98.7022 58.0432 106.742M173 106.653C158.213 111.293 162.482 149.332 180.996 142.257C195.068 136.88 192.144 100.646 173 106.653M293.043 106.742C279.396 112.269 283.809 149.34 302 141.991C316.623 136.083 312.786 98.7469 293.043 106.742M511 106.703C496.416 111.64 500.084 148.467 518.96 142.346C533.657 137.581 530.361 100.149 511 106.703M568 120L592 120C591.164 101.964 568.934 101.993 568 120M461.044 125.742C449.04 130.634 459.326 146.749 470.999 141.991C486.193 135.798 474.364 120.314 461.044 125.742z"/>
<path style="fill:#010101; stroke:none;" d="M251 187C251 199.187 247.49 217.975 253.442 228.985C259.314 239.846 277.731 239.607 283.583 228.996C289.58 218.121 286 199.122 286 187L280 187C280 197.796 284.806 223.889 272.985 229.678C266.784 232.715 260.397 227.774 258.264 222C254.535 211.907 257 197.647 257 187L251 187M299 187L299 236L305 236L305 200L306 200C309.192 210.018 322.758 235.632 334 236L334 187L328 187L328 224C321.965 214.175 311.502 187.409 299 187M348 187L348 236L354 236L354 187L348 187M363 187L379 236C387.981 235.894 388.822 229.532 391.333 222C395.223 210.335 399.195 198.693 403 187C389.584 187.16 387.482 215.584 383 226C378.468 215.775 375.817 187.153 363 187M411 187L411 236L442 236L442 230L417 230L417 213L431 213L431 207L417 207L417 193L441 193L441 187L411 187M452 187L452 236L458 236L458 216C461.265 216 465.714 215.269 468.363 217.603C476.22 224.53 473.168 235.955 486 236L476 215C486.792 211.786 491.299 196.813 480.956 189.728C473.521 184.634 460.556 187 452 187M499 225L498 225L494 229L494 230C499.91 234.987 507.128 238.045 515 236.532C524.235 234.756 530.365 224.945 525.543 216.093C521.811 209.242 501.043 207.054 502.971 198.043C505.778 184.923 522.017 202.295 526 191C515.147 184.697 486.533 186.62 497.318 205.907C501.983 214.249 516.005 212.332 519.712 221.093C525.386 234.501 503.438 228.374 499 225M539 187L539 236L545 236L545 187L539 187M553 187L553 193L567 193L567 236L573 236L573 193L587 193L587 187L553 187M592 187L607.351 217L608 236L615 236L615.815 216L631 187C620.646 187.123 614.656 200.972 612 210C606.817 201.531 603.256 187.133 592 187z"/>
<path style="fill:#ffffff; stroke:none;" d="M458 193L458 210C463.372 210 471.023 211.35 475.891 208.682C481.209 205.768 481.209 197.232 475.891 194.318C471.023 191.65 463.372 193 458 193z"/>
</svg>
